<?xml version="1.0" encoding="UTF-8" standalone="no"?>
<!-- Created with Inkscape (http://www.inkscape.org/) -->

<svg
   xmlns:dc="http://purl.org/dc/elements/1.1/"
   xmlns:cc="http://creativecommons.org/ns#"
   xmlns:rdf="http://www.w3.org/1999/02/22-rdf-syntax-ns#"
   xmlns:svg="http://www.w3.org/2000/svg"
   xmlns="http://www.w3.org/2000/svg"
   xmlns:sodipodi="http://sodipodi.sourceforge.net/DTD/sodipodi-0.dtd"
   xmlns:inkscape="http://www.inkscape.org/namespaces/inkscape"
   width="1024"
   height="311"
   viewBox="0 0 270.93334 82.285417"
   version="1.1"
   id="svg8"
   inkscape:version="0.92.2 5c3e80d, 2017-08-06"
   sodipodi:docname="juruo.svg">
  <defs
     id="defs2" />
  <sodipodi:namedview
     id="base"
     pagecolor="#ffffff"
     bordercolor="#666666"
     borderopacity="1.0"
     inkscape:pageopacity="0.0"
     inkscape:pageshadow="2"
     inkscape:zoom="0.49497475"
     inkscape:cx="408.38241"
     inkscape:cy="165.48766"
     inkscape:document-units="mm"
     inkscape:current-layer="layer1"
     showgrid="true"
     units="px"
     showguides="false"
     inkscape:window-width="1410"
     inkscape:window-height="855"
     inkscape:window-x="30"
     inkscape:window-y="1"
     inkscape:window-maximized="1">
    <inkscape:grid
       type="xygrid"
       id="grid1401" />
  </sodipodi:namedview>
  <metadata
     id="metadata5">
    <rdf:RDF>
      <cc:Work
         rdf:about="">
        <dc:format>image/svg+xml</dc:format>
        <dc:type
           rdf:resource="http://purl.org/dc/dcmitype/StillImage" />
        <dc:title />
      </cc:Work>
    </rdf:RDF>
  </metadata>
  <g
     inkscape:label="Layer 1"
     inkscape:groupmode="layer"
     id="layer1"
     transform="translate(0,-214.71459)">
    <flowRoot
       xml:space="preserve"
       id="flowRoot1366"
       style="font-style:normal;font-variant:normal;font-weight:normal;font-stretch:normal;font-size:40px;line-height:1.25;font-family:Menlo;-inkscape-font-specification:Menlo;letter-spacing:0px;word-spacing:0px;fill:#000000;fill-opacity:1;stroke:none"><flowRegion
         id="flowRegion1368"
         style="font-style:normal;font-variant:normal;font-weight:normal;font-stretch:normal;font-family:Menlo;-inkscape-font-specification:Menlo"><rect
           id="rect1370"
           width="1020"
           height="331.42856"
           x="0"
           y="-0.5714286"
           style="font-style:normal;font-variant:normal;font-weight:normal;font-stretch:normal;font-family:Menlo;-inkscape-font-specification:Menlo" /></flowRegion><flowPara
         id="flowPara1372" /></flowRoot>    <g
       aria-label="wycero"
       style="font-style:normal;font-weight:normal;font-size:10.58333302px;line-height:1.25;font-family:sans-serif;letter-spacing:0px;word-spacing:0px;fill:#7f0000;fill-opacity:1;stroke:none;stroke-width:0.26458332"
       id="text1386"
       transform="translate(-13.176013,87.88008)">
      <path
         d="m 54.293916,131.22423 h 4.564063 l 5.705078,21.67929 5.680273,-21.67929 h 5.382617 l 5.705078,21.67929 5.680274,-21.67929 h 4.564062 l -7.267773,27.78125 h -5.382617 l -5.97793,-22.7707 -6.002734,22.7707 H 61.56169 Z"
         style="font-size:50.79999924px;fill:#7f0000;fill-opacity:1;stroke-width:0.26458332"
         id="path1388"
         inkscape:connector-curvature="0" />
      <path
         d="m 110.07966,161.58517 q -1.93477,4.96093 -3.77032,6.47402 -1.83554,1.51308 -4.91132,1.51308 h -3.646293 v -3.81992 h 2.678903 q 1.88516,0 2.92696,-0.89297 1.04179,-0.89296 2.30683,-4.21679 l 0.81856,-2.0836 -11.236526,-27.33476 h 4.836916 l 8.68164,21.7289 8.68164,-21.7289 h 4.83691 z"
         style="font-size:50.79999924px;fill:#7f0000;fill-opacity:1;stroke-width:0.26458332"
         id="path1390"
         inkscape:connector-curvature="0" />
      <path
         d="m 148.57653,132.29083 v 4.26641 q -1.93477,-1.06661 -3.89434,-1.5875 -1.93476,-0.54571 -3.91914,-0.54571 -4.44004,0 -6.8957,2.82774 -2.45566,2.80293 -2.45566,7.88789 0,5.08496 2.45566,7.91269 2.45566,2.80293 6.8957,2.80293 1.98438,0 3.91914,-0.5209 1.95957,-0.5457 3.89434,-1.6123 v 4.2168 q -1.90996,0.89297 -3.96875,1.33945 -2.03399,0.44648 -4.34082,0.44648 -6.27559,0 -9.97149,-3.94394 -3.69589,-3.94395 -3.69589,-10.64121 0,-6.79649 3.7207,-10.69082 3.74551,-3.89434 10.24433,-3.89434 2.1084,0 4.11758,0.44649 2.00918,0.42168 3.89434,1.28984 z"
         style="font-size:50.79999924px;fill:#7f0000;fill-opacity:1;stroke-width:0.26458332"
         id="path1392"
         inkscape:connector-curvature="0" />
      <path
         d="m 180.32653,143.97384 v 2.23242 h -20.98476 q 0.29765,4.71289 2.82773,7.19336 2.55488,2.45566 7.09414,2.45566 2.6293,0 5.08496,-0.64492 2.48047,-0.64492 4.91133,-1.93476 v 4.31601 q -2.45566,1.0418 -5.03535,1.5875 -2.57969,0.5457 -5.23379,0.5457 -6.64766,0 -10.54199,-3.86953 -3.86953,-3.86953 -3.86953,-10.46758 0,-6.82128 3.67109,-10.81484 3.6959,-4.01836 9.94668,-4.01836 5.60586,0 8.85527,3.62149 3.27422,3.59668 3.27422,9.79785 z m -4.56406,-1.33946 q -0.0496,-3.7455 -2.1084,-5.97793 -2.03398,-2.23242 -5.40742,-2.23242 -3.81992,0 -6.12676,2.15801 -2.28203,2.15801 -2.6293,6.07715 z"
         style="font-size:50.79999924px;fill:#7f0000;fill-opacity:1;stroke-width:0.26458332"
         id="path1394"
         inkscape:connector-curvature="0" />
      <path
         d="m 203.91578,135.49063 q -0.76894,-0.44648 -1.68672,-0.64492 -0.89297,-0.22324 -1.98437,-0.22324 -3.86953,0 -5.95313,2.53008 -2.05879,2.50527 -2.05879,7.21816 v 14.63477 h -4.58886 v -27.78125 h 4.58886 v 4.31601 q 1.43868,-2.53007 3.74551,-3.7455 2.30684,-1.24024 5.60586,-1.24024 0.47129,0 1.0418,0.0744 0.57051,0.0496 1.26504,0.17363 z"
         style="font-size:50.79999924px;fill:#7f0000;fill-opacity:1;stroke-width:0.26458332"
         id="path1396"
         inkscape:connector-curvature="0" />
      <path
         d="m 218.47615,134.42403 q -3.6711,0 -5.8043,2.87735 -2.1332,2.85254 -2.1332,7.83828 0,4.98574 2.10839,7.86308 2.13321,2.85254 5.82911,2.85254 3.64628,0 5.77949,-2.87734 2.1332,-2.87734 2.1332,-7.83828 0,-4.93613 -2.1332,-7.81348 -2.13321,-2.90215 -5.77949,-2.90215 z m 0,-3.86953 q 5.95312,0 9.35136,3.86953 3.39824,3.86953 3.39824,10.71563 0,6.82129 -3.39824,10.71562 -3.39824,3.86953 -9.35136,3.86953 -5.97793,0 -9.37618,-3.86953 -3.37343,-3.89433 -3.37343,-10.71562 0,-6.8461 3.37343,-10.71563 3.39825,-3.86953 9.37618,-3.86953 z"
         style="font-size:50.79999924px;fill:#7f0000;fill-opacity:1;stroke-width:0.26458332"
         id="path1398"
         inkscape:connector-curvature="0" />
    </g>
    <g
       aria-label="一只OI小蒟蒻"
       style="font-style:normal;font-weight:normal;font-size:12.69999981px;line-height:1.25;font-family:sans-serif;letter-spacing:0px;word-spacing:0px;fill:#7f0000;fill-opacity:1;stroke:none;stroke-width:0.26458332"
       id="text1405"
       transform="translate(22.517937,26.790957)">
      <path
         d="m 150.40227,259.42816 q 0.11288,0.127 0.11288,0.21167 0,0.0705 -0.21166,0.0705 h -11.557 q -0.59267,0 -0.95956,0.15522 l -0.53622,-0.66322 q 0.53622,0.0847 1.17122,0.0847 h 9.99067 l 0.90311,-1.10067 z"
         style="font-style:normal;font-variant:normal;font-weight:normal;font-stretch:normal;font-size:14.11111069px;font-family:'Songti SC';-inkscape-font-specification:'Songti SC';fill:#7f0000;fill-opacity:1;stroke-width:0.26458332"
         id="path1407"
         inkscape:connector-curvature="0" />
      <path
         d="m 155.36938,254.74327 h 5.64444 l 0.635,-0.86078 1.10067,0.87489 q 0.14111,0.11289 0.14111,0.19756 0,0.0847 -0.14111,0.16933 l -0.45156,0.29633 v 3.57012 q 0,0.64911 0.0423,1.05833 0.0423,0.40922 0.0423,0.43744 0,0.254 -0.45156,0.49389 -0.43744,0.22578 -0.59266,0.22578 -0.14111,0 -0.14111,-0.19756 v -0.83255 h -5.87023 v 0.46567 q 0,0.21166 -0.127,0.31044 -0.11289,0.0988 -0.45155,0.23989 -0.32456,0.14111 -0.46567,0.14111 -0.127,0 -0.127,-0.15522 0,-0.16934 0.0141,-0.32456 0.127,-1.15711 0.127,-2.17311 v -2.97744 q 0,-0.90311 -0.0564,-1.70745 z m 5.82789,5.09411 v -4.72722 h -5.87023 v 4.72722 z m -3.86645,2.24367 q 0.127,0.11289 0.127,0.19755 0,0.0988 -0.21167,0.0988 -0.19755,0 -0.42333,0.15522 -0.21167,0.14112 -0.381,0.35278 -1.42522,1.60867 -4.68489,3.45722 l -0.14111,-0.18344 q 1.46756,-1.15711 2.75167,-2.58233 1.29822,-1.42523 1.87678,-2.51178 z m 2.286,-0.77611 q 1.93322,1.15711 3.18911,2.14489 1.27,0.97366 1.27,1.63689 0,0.35277 -0.21166,0.635 -0.19756,0.29633 -0.42334,0.29633 -0.49389,0 -0.67733,-0.47978 -0.381,-0.97367 -1.17122,-1.94733 -0.77611,-0.97367 -2.07434,-2.14489 z"
         style="font-style:normal;font-variant:normal;font-weight:normal;font-stretch:normal;font-size:14.11111069px;font-family:'Songti SC';-inkscape-font-specification:'Songti SC';fill:#7f0000;fill-opacity:1;stroke-width:0.26458332"
         id="path1409"
         inkscape:connector-curvature="0" />
      <path
         d="m 170.52471,263.87316 q -1.05833,0 -1.96144,-0.33867 -0.889,-0.33866 -1.53812,-0.93133 -0.635,-0.60678 -1.00188,-1.43933 -0.35278,-0.83256 -0.35278,-1.80623 0,-0.97366 0.36689,-1.82033 0.36689,-0.86078 1.03011,-1.49578 0.66322,-0.635 1.58044,-0.98777 0.93134,-0.36689 2.06022,-0.36689 0.97367,0 1.82034,0.35277 0.86078,0.33867 1.49578,0.95956 0.64911,0.60678 1.016,1.46756 0.36688,0.84666 0.36688,1.84855 0,1.00189 -0.35277,1.84856 -0.35278,0.83255 -1.00189,1.43933 -0.635,0.59267 -1.53811,0.93133 -0.90311,0.33867 -1.98967,0.33867 z m -3.48544,-4.445 q 0,0.80433 0.254,1.56633 0.26811,0.74789 0.71966,1.32645 0.46567,0.56444 1.10067,0.91722 0.635,0.33867 1.38289,0.33867 1.74978,0 2.65289,-1.07245 0.91722,-1.08655 0.91722,-3.10444 0,-0.97367 -0.254,-1.778 -0.23989,-0.81845 -0.70556,-1.397 -0.46566,-0.57856 -1.12889,-0.90311 -0.64911,-0.32456 -1.45344,-0.32456 -0.84667,0 -1.49578,0.35278 -0.64911,0.33867 -1.10066,0.94544 -0.43745,0.59267 -0.66323,1.41111 -0.22577,0.80434 -0.22577,1.72156 z"
         style="font-style:normal;font-variant:normal;font-weight:normal;font-stretch:normal;font-size:14.11111069px;font-family:'Songti SC';-inkscape-font-specification:'Songti SC';fill:#7f0000;fill-opacity:1;stroke-width:0.26458332"
         id="path1411"
         inkscape:connector-curvature="0" />
      <path
         d="m 177.96545,262.87127 v -7.26722 q 0,-0.23989 -0.0847,-0.33867 -0.0706,-0.0988 -0.26812,-0.11289 l -1.19944,-0.127 v -0.23989 q 0.14111,0.0423 2.96333,0.0423 0.83256,0 1.32645,-0.0423 v 0.254 l -0.84667,0.0988 q -0.18344,0.0141 -0.32455,0.0282 -0.127,0 -0.21167,0.0423 -0.0847,0.0423 -0.127,0.14111 -0.0423,0.0847 -0.0423,0.254 v 7.26722 q 0,0.23989 0.0705,0.32456 0.0706,0.0706 0.28222,0.0847 l 1.19945,0.0706 v 0.35278 q -0.28222,-0.0282 -0.81845,-0.0423 -0.52211,-0.0141 -1.32644,-0.0141 -0.80433,0 -1.34056,0.0141 -0.52211,0.0141 -0.80433,0.0423 v -0.35278 l 0.83256,-0.0423 q 0.21166,-0.0141 0.33866,-0.0282 0.14111,-0.0141 0.22578,-0.0423 0.0847,-0.0423 0.11289,-0.11289 0.0423,-0.0847 0.0423,-0.254 z"
         style="font-style:normal;font-variant:normal;font-weight:normal;font-stretch:normal;font-size:14.11111069px;font-family:'Songti SC';-inkscape-font-specification:'Songti SC';fill:#7f0000;fill-opacity:1;stroke-width:0.26458332"
         id="path1413"
         inkscape:connector-curvature="0" />
      <path
         d="m 189.14873,254.72916 -0.254,0.29633 v 10.06123 q 0,0.47977 -0.18345,0.762 -0.16933,0.28222 -0.762,0.64911 -0.59266,0.36689 -0.73377,0.36689 -0.14111,0 -0.18345,-0.22578 -0.11289,-0.49389 -0.45155,-0.73378 -0.33867,-0.22578 -1.31234,-0.45156 l 0.0706,-0.28222 q 1.07244,0.15522 1.73567,0.15522 0.67733,0 0.67733,-0.35277 v -8.87589 q 0,-1.36878 -0.0706,-2.32834 l 1.46756,0.56445 q 0.14111,0.0423 0.14111,0.14111 0,0.0988 -0.14111,0.254 z m -2.69522,3.48544 q 0.15522,0.0988 0.15522,0.19756 0,0.0847 -0.23989,0.15522 -0.22578,0.0564 -0.508,0.508 -1.98967,3.18911 -4.13456,4.99534 l -0.18344,-0.21167 q 2.46944,-2.68111 3.69711,-6.40645 z m 3.61244,-0.53622 q 1.143,0.77611 2.07433,1.56634 0.94545,0.79022 1.55223,1.45344 0.60677,0.66322 0.762,1.016 0.16933,0.35278 0.16933,0.77611 0,0.42333 -0.21167,0.69145 -0.19755,0.26811 -0.46566,0.26811 -0.14112,0 -0.254,-0.14111 -0.0988,-0.14112 -0.26812,-0.47978 -0.80433,-1.70745 -1.63688,-2.794 -0.83256,-1.10067 -1.905,-2.14489 z"
         style="font-style:normal;font-variant:normal;font-weight:normal;font-stretch:normal;font-size:14.11111069px;font-family:'Songti SC';-inkscape-font-specification:'Songti SC';fill:#7f0000;fill-opacity:1;stroke-width:0.26458332"
         id="path1415"
         inkscape:connector-curvature="0" />
      <path
         d="m 199.77439,255.81572 h -2.59644 q -0.53622,0 -0.95956,0.14111 l -0.49388,-0.62089 q 0.55033,0.0705 1.15711,0.0705 h 2.89277 v -0.57855 q 0,-0.52211 -0.0564,-1.27 l 1.143,0.56444 q 0.127,0.0565 0.127,0.11289 0,0.0564 -0.0988,0.16933 l -0.19755,0.22578 v 0.77611 h 2.90689 v -0.73377 q 0,-0.67734 -0.0565,-1.11478 l 1.22767,0.53622 q 0.15522,0.0564 0.15522,0.127 0,0.0706 -0.11289,0.11289 l -0.29633,0.14111 v 0.93133 h 2.38478 l 0.77611,-0.87489 0.889,1.016 q 0.0988,0.11289 0.0988,0.19756 0,0.0706 -0.21166,0.0706 h -3.937 l 0.0564,0.62088 q 0,0.21167 -0.381,0.35278 -0.36689,0.127 -0.508,0.127 -0.14111,0 -0.14111,-0.15522 0,-0.15522 0.0565,-0.94544 h -2.90689 l 0.0423,1.04422 q 0,0.21166 -0.40922,0.32455 -0.40922,0.11289 -0.47978,0.11289 -0.18344,0 -0.18344,-0.127 0,-0.14111 0.0282,-0.254 0.0847,-0.33866 0.0847,-1.10066 z m -1.651,0.83255 q 1.38289,0.73378 1.38289,1.46756 0,0.86077 -0.64911,0.86077 -0.36689,0 -0.36689,-0.60677 0,-0.91723 -0.52211,-1.56634 z m 4.81189,2.38478 q -0.83255,1.25589 -1.93322,2.45533 l -0.18344,-0.16933 q 1.524,-2.20133 2.24366,-4.62845 l 1.05834,0.55034 q 0.127,0.0847 0.127,0.16933 0,0.0847 -0.15523,0.0988 -0.254,0.0564 -0.49388,0.47978 l -0.42334,0.66322 h 3.27378 l 0.42333,-0.56445 0.95956,0.635 q 0.14111,0.0988 0.14111,0.15523 0,0.0564 -0.14111,0.16933 l -0.36689,0.254 q -0.0423,2.667 -0.15522,4.37444 -0.0988,1.69334 -0.254,2.11667 -0.14111,0.43745 -0.62089,0.77611 -0.47978,0.33867 -0.635,0.33867 -0.15522,0 -0.18345,-0.18345 -0.0564,-0.39511 -0.43744,-0.62088 -0.36689,-0.22578 -1.04422,-0.39512 v -0.28222 q 0.91722,0.127 1.28411,0.127 0.381,0 0.53622,-0.0847 0.16933,-0.0706 0.23989,-0.254 0.0706,-0.18345 0.14111,-0.97367 0.0847,-0.80433 0.127,-2.11667 0.0564,-1.31233 0.0564,-3.09033 z m -1.31233,0.43744 q 0.0988,0.0988 0.0988,0.16934 0,0.0564 -0.19756,0.0564 h -3.937 q -0.52211,0 -0.93133,0.15522 l -0.49389,-0.60677 q 0.508,0.0706 1.143,0.0706 h 2.80811 l 0.67733,-0.79022 z m -2.68111,4.89656 q 0.74789,-2.76578 0.91722,-4.43089 l 1.03011,0.47978 q 0.14111,0.0564 0.14111,0.14111 0,0.0705 -0.19755,0.22578 -0.18345,0.14111 -0.42334,0.71966 -0.22577,0.57856 -0.97366,2.75167 l 2.10255,-0.43744 0.0282,0.26811 -2.99156,1.05833 q -1.00189,0.35278 -1.42522,0.60678 -0.40922,0.254 -0.52211,0.254 -0.11289,0 -0.16934,-0.11289 l -0.46566,-0.91722 z m 4.23333,-0.73378 v 0.59267 q 0,0.35278 -0.32455,0.52211 -0.31045,0.16933 -0.47978,0.16933 -0.16933,0 -0.14111,-0.35278 0.0988,-1.10066 0.0988,-1.778 v -1.22766 q 0,-0.70556 -0.0423,-1.48167 l 0.83256,0.56445 h 1.29822 l 0.42333,-0.55034 0.86078,0.55034 q 0.0988,0.0847 0.0988,0.14111 0,0.0564 -0.11289,0.15522 l -0.26811,0.19755 v 1.19945 q 0,0.36689 0.0282,0.74789 l 0.0565,0.62089 q 0,0.254 -0.35278,0.45155 -0.33867,0.18345 -0.46567,0.18345 -0.11289,0 -0.11289,-0.19756 v -0.508 z m 0,-2.61055 v 2.22955 h 1.397 v -2.22955 z m -5.87022,-0.60678 q 1.03011,1.143 1.27,1.72155 0.254,0.57856 0.254,0.97367 0,0.39511 -0.18344,0.64911 -0.18345,0.254 -0.36689,0.254 -0.16934,0 -0.28223,-0.0988 -0.0988,-0.0988 -0.14111,-0.22577 -0.0282,-0.127 -0.0282,-0.47978 0,-1.55222 -0.69144,-2.65289 z"
         style="font-style:normal;font-variant:normal;font-weight:normal;font-stretch:normal;font-size:14.11111069px;font-family:'Songti SC';-inkscape-font-specification:'Songti SC';fill:#7f0000;fill-opacity:1;stroke-width:0.26458332"
         id="path1417"
         inkscape:connector-curvature="0" />
      <path
         d="m 214.01251,255.51938 h -2.75167 q -0.53622,0 -0.95955,0.14111 l -0.49389,-0.60677 q 0.55033,0.0564 1.15711,0.0564 h 3.048 q 0,-0.81844 -0.0423,-1.58044 l 1.17122,0.508 q 0.18344,0.0705 0.18344,0.15522 0,0.0705 -0.11289,0.14111 l -0.29633,0.16933 v 0.60678 h 2.96333 q 0,-0.80433 -0.0564,-1.56633 l 1.22767,0.47977 q 0.127,0.0565 0.127,0.15523 0,0.0988 -0.11289,0.16933 l -0.26811,0.16933 v 0.59267 h 1.97555 l 0.77611,-0.86078 0.889,0.97367 q 0.0988,0.11289 0.0988,0.21167 0,0.0847 -0.21167,0.0847 h -3.52777 q 0,0.26811 0.0282,0.45156 l 0.0282,0.31044 q 0,0.18345 -0.39511,0.33867 -0.381,0.14111 -0.47978,0.14111 -0.0988,0 -0.14111,-0.0847 -0.0282,-0.0847 -0.0141,-0.31044 l 0.0564,-0.84667 h -2.96333 q 0.0423,0.64911 0.0423,0.66322 0,0.19756 -0.40922,0.31045 -0.39511,0.0988 -0.47978,0.0988 -0.0705,0 -0.0988,-0.0706 -0.0141,-0.0847 0.0141,-0.35278 0.0282,-0.26811 0.0282,-0.64911 z m 6.40644,3.47134 v -1.53812 h -2.59644 q -0.59267,0 -0.95956,0.14112 l -0.508,-0.62089 q 0.52211,0.0706 1.17123,0.0706 h 2.77988 l 0.47978,-0.56444 0.95956,0.73378 q 0.127,0.0988 0.127,0.15522 0,0.0423 -0.127,0.127 l -0.35278,0.22578 v 0.81844 l 0.0282,0.91722 q 0,0.22578 -0.39511,0.40922 -0.381,0.18345 -0.49389,0.18345 -0.11289,0 -0.11289,-0.18345 v -0.47977 h -2.42711 l -0.33866,1.58044 h 2.921 l 0.49388,-0.69144 0.95956,0.66322 q 0.127,0.0706 0.127,0.14111 0,0.0706 -0.15522,0.14111 l -0.29634,0.14111 q -0.0141,1.76389 -0.11288,2.65289 -0.0847,0.87489 -0.16934,1.21356 -0.0847,0.35277 -0.36689,0.69144 -0.28222,0.33867 -0.67733,0.59267 -0.39511,0.254 -0.55033,0.254 -0.14111,0 -0.15523,-0.22578 -0.0282,-0.45156 -0.39511,-0.69144 -0.35277,-0.22578 -1.016,-0.35278 l 0.0564,-0.29634 q 0.73378,0.15523 1.21355,0.15523 0.47978,0 0.69145,-0.21167 0.22578,-0.19756 0.32455,-0.74789 0.0988,-0.56444 0.127,-0.93133 l -1.98966,0.889 q -1.49578,0.64911 -1.70745,0.97366 -0.0847,0.127 -0.15522,0.127 -0.0706,0 -0.18344,-0.127 l -0.70556,-0.84666 4.75544,-1.397 q 0.0423,-0.53622 0.0706,-1.73567 h -3.14678 l -0.381,0.39511 q -0.0423,0.0423 -0.11289,0.0423 -0.0564,0 -0.11289,-0.0564 l -0.66322,-0.59267 q 0.31045,-0.127 0.39511,-0.26811 0.0988,-0.14111 0.18345,-0.47977 l 0.21166,-0.95956 q 0.127,-0.55033 0.0847,-1.11478 l 0.95956,0.67734 z m -5.70089,0 v -1.53812 h -2.59644 q -0.59267,0 -0.95956,0.14112 l -0.508,-0.62089 q 0.52212,0.0706 1.17123,0.0706 h 2.85044 l 0.43745,-0.52211 0.90311,0.64911 q 0.11289,0.0988 0.11289,0.15522 0,0.0423 -0.11289,0.127 l -0.35278,0.22578 v 0.70556 l 0.0282,0.91722 q 0,0.22578 -0.381,0.40922 -0.36689,0.18345 -0.47978,0.18345 -0.11289,0 -0.11289,-0.18345 v -0.33866 h -2.31422 l -0.254,1.59455 h 2.32834 l 0.49388,-0.62089 0.90312,0.60678 q 0.127,0.0847 0.127,0.18344 0,0.0847 -0.15523,0.16934 l -0.23989,0.11289 q -0.0564,1.48166 -0.18344,2.794 -0.11289,1.31233 -0.39511,1.66511 -0.26811,0.35278 -0.73378,0.635 -0.45155,0.28222 -0.57855,0.28222 -0.127,0 -0.14112,-0.254 -0.0282,-0.43744 -0.39511,-0.66322 -0.35277,-0.21167 -1.016,-0.381 l 0.0282,-0.26811 q 0.86077,0.14111 1.29822,0.14111 0.45155,0 0.64911,-0.14111 0.21167,-0.14111 0.26811,-0.45156 0.0564,-0.31044 0.14111,-1.41111 l -1.905,0.94544 q -1.18533,0.57856 -1.60867,1.08656 -0.0847,0.0988 -0.18344,0.0988 -0.0847,0 -0.18344,-0.11289 l -0.71967,-0.762 4.62844,-1.58045 q 0.0564,-0.36688 0.0847,-1.69333 h -2.59644 l -0.28223,0.254 q -0.0705,0.0706 -0.15522,0.0706 -0.0706,0 -0.14111,-0.0706 l -0.70556,-0.49389 q 0.53623,-0.26811 0.64912,-0.95955 l 0.0847,-0.635 q 0.127,-0.81845 0.127,-1.22767 l 0.93134,0.70556 z m -3.11855,2.794 q 0.57855,0.127 1.11478,0.36688 0.53622,0.22578 0.53622,0.55034 0,0.32455 -0.14111,0.53622 -0.14111,0.21167 -0.35278,0.21167 -0.21167,0 -0.40922,-0.49389 -0.18345,-0.49389 -0.83256,-1.016 z m 5.89844,0.0847 q 0.91723,0.16934 1.25589,0.381 0.35278,0.19756 0.35278,0.46567 0,0.26811 -0.11289,0.49389 -0.11289,0.22578 -0.39511,0.22578 -0.19756,0 -0.33867,-0.36689 -0.22577,-0.55034 -0.83255,-0.98778 z"
         style="font-style:normal;font-variant:normal;font-weight:normal;font-stretch:normal;font-size:14.11111069px;font-family:'Songti SC';-inkscape-font-specification:'Songti SC';fill:#7f0000;fill-opacity:1;stroke-width:0.26458332"
         id="path1419"
         inkscape:connector-curvature="0" />
    </g>
  </g>
</svg>
